<svg width="41" height="41" viewBox="0 0 41 41" fill="none" xmlns="http://www.w3.org/2000/svg">
<path d="M37.1047 19.7694H32.1847C30.9416 19.7633 29.7479 20.2556 28.8705 21.1361L21.3197 28.6869V12.3723C21.3143 11.5083 20.7889 10.7327 19.9885 10.4073C19.1881 10.0819 18.2705 10.2709 17.6638 10.8861L9.41259 19.1373C9.01176 19.5444 8.46348 19.7724 7.89217 19.7694H2.98926C2.28164 19.7694 1.70801 20.343 1.70801 21.0507C1.70801 21.7583 2.28164 22.3319 2.98926 22.3319H7.89217C9.17239 22.3574 10.4072 21.8573 11.3088 20.9482L18.723 13.4144V29.729C18.7213 30.5904 19.2413 31.3671 20.0384 31.6936C20.2968 31.8073 20.5761 31.8655 20.8584 31.8644C21.4242 31.8647 21.9662 31.6368 22.3618 31.2323L30.6813 22.9469C31.0819 22.5519 31.6221 22.3309 32.1847 22.3319H37.1047C37.8123 22.3319 38.3859 21.7583 38.3859 21.0507C38.3859 20.343 37.8123 19.7694 37.1047 19.7694Z" fill="white"/>
</svg>
