<svg width="43" height="41" viewBox="0 0 43 41" fill="none" xmlns="http://www.w3.org/2000/svg">
<path fill-rule="evenodd" clip-rule="evenodd" d="M10.7497 3.41666H32.2497C36.2077 3.41666 39.4163 6.47604 39.4163 10.25V30.75C39.4163 34.5239 36.2077 37.5833 32.2497 37.5833H10.7497C6.79163 37.5833 3.58301 34.5239 3.58301 30.75V10.25C3.58301 6.47604 6.79163 3.41666 10.7497 3.41666ZM35.4169 33.7699C36.2569 32.969 36.7288 31.8827 36.7288 30.75V10.25C36.7288 9.1173 36.2569 8.03099 35.4169 7.23006C34.5769 6.42912 33.4376 5.97916 32.2497 5.97916H10.7497C8.2759 5.97916 6.27051 7.89127 6.27051 10.25V30.75C6.27051 31.8827 6.74242 32.969 7.58243 33.7699C8.42243 34.5709 9.56173 35.0208 10.7497 35.0208H32.2497C33.4376 35.0208 34.5769 34.5709 35.4169 33.7699Z" fill="white"/>
<path d="M29.0963 19.2187H13.903C13.1609 19.2187 12.5593 19.7924 12.5593 20.5C12.5593 21.2076 13.1609 21.7812 13.903 21.7812H29.0963C29.8385 21.7812 30.4401 21.2076 30.4401 20.5C30.4401 19.7924 29.8385 19.2187 29.0963 19.2187Z" fill="white"/>
</svg>
