<svg width="41" height="41" viewBox="0 0 41 41" fill="none" xmlns="http://www.w3.org/2000/svg">
<path d="M16.9793 6.13792H10.0688C6.93439 6.13792 4.39349 8.67883 4.39349 11.8132V29.5014C4.39349 32.6358 6.93439 35.1767 10.0688 35.1767H20.2377C20.9793 35.1767 21.5804 35.7779 21.5804 36.5194C21.5804 37.261 20.9793 37.8622 20.2377 37.8622H10.0688C5.45534 37.8523 1.71787 34.1149 1.70803 29.5014V11.8132C1.70327 9.59104 2.58146 7.45801 4.14941 5.88336C5.71735 4.3087 7.84661 3.4214 10.0688 3.41666H16.9793C19.5798 3.41666 21.6879 5.52473 21.6879 8.12516C21.6976 9.23841 22.5977 10.1385 23.7109 10.1482H30.6215C35.2349 10.1581 38.9724 13.8955 38.9822 18.5089C38.9925 19.2666 38.3967 19.8942 37.6395 19.9233C37.2884 19.9379 36.9466 19.8086 36.6931 19.5653C36.4396 19.3219 36.2964 18.9857 36.2968 18.6343C36.3207 17.1103 35.7345 15.6401 34.6686 14.5506C33.6027 13.4612 32.1456 12.843 30.6215 12.8337H23.7109C21.1105 12.8337 19.0024 10.7256 19.0024 8.12516C18.9735 7.02592 18.0789 6.14719 16.9793 6.13792Z" fill="white"/>
<path d="M24.3733 24.1126C24.3733 23.371 24.9745 22.7699 25.716 22.7699H34.3095C35.0511 22.7699 35.6522 23.371 35.6522 24.1126C35.6522 24.8542 35.0511 25.4553 34.3095 25.4553H25.716C24.9745 25.4553 24.3733 24.8542 24.3733 24.1126Z" fill="white"/>
<path d="M25.716 35.1588H29.2967C30.0382 35.1588 30.6394 35.76 30.6394 36.5015C30.6394 37.2431 30.0382 37.8443 29.2967 37.8443H25.716C24.9745 37.8443 24.3733 37.2431 24.3733 36.5015C24.3733 35.76 24.9745 35.1588 25.716 35.1588Z" fill="white"/>
<path d="M25.716 28.9643C24.9745 28.9643 24.3733 29.5655 24.3733 30.3071C24.3733 31.0486 24.9745 31.6498 25.716 31.6498H37.6753C38.4169 31.6498 39.018 31.0486 39.018 30.3071C39.018 29.5655 38.4169 28.9643 37.6753 28.9643H25.716Z" fill="white"/>
</svg>
