<svg width="39" height="38" viewBox="0 0 39 38" fill="none" xmlns="http://www.w3.org/2000/svg">
<path d="M16.1511 4.10544H9.57773C6.59633 4.10544 4.17942 6.46037 4.17942 9.36533V25.7589C4.17942 28.6639 6.59633 31.0188 9.57773 31.0188H19.2504C19.9558 31.0188 20.5276 31.576 20.5276 32.2633C20.5276 32.9506 19.9558 33.5077 19.2504 33.5077H9.57773C5.18945 33.4986 1.63438 30.0347 1.62502 25.7589V9.36533C1.6205 7.30582 2.45583 5.32891 3.94725 3.8695C5.43868 2.4101 7.46402 1.58774 9.57773 1.58334H16.1511C18.6246 1.58334 20.6298 3.53712 20.6298 5.94723C20.639 6.97899 21.4952 7.81319 22.5541 7.8222H29.1274C33.5157 7.83133 37.0708 11.2952 37.0802 15.571C37.0899 16.2732 36.5232 16.8549 35.8029 16.8818C35.469 16.8954 35.1438 16.7755 34.9027 16.55C34.6616 16.3245 34.5255 16.0128 34.5257 15.6871C34.5485 14.2748 33.9909 12.9121 32.977 11.9024C31.9632 10.8927 30.5772 10.3198 29.1274 10.3111H22.5541C20.0806 10.3111 18.0754 8.35733 18.0754 5.94723C18.0479 4.92844 17.197 4.11402 16.1511 4.10544Z" fill="white"/>
<path d="M32.4141 25.2611C32.6558 25.5151 32.9952 25.6594 33.3507 25.6594C33.6758 25.6583 33.9876 25.5333 34.2192 25.3109L36.7396 22.9879C36.9903 22.7505 37.1318 22.4243 37.1318 22.0836C37.1318 21.743 36.9903 21.4168 36.7396 21.1793L34.2022 18.8564C33.6758 18.5024 32.9619 18.5824 32.5317 19.0435C32.1015 19.5046 32.0876 20.2046 32.4993 20.6816L32.6866 20.8475H29.7235C28.0704 20.7793 26.4609 21.3743 25.2702 22.4937C24.0796 23.6131 23.4118 25.159 23.4226 26.7711C23.4226 27.4584 23.9944 28.0155 24.6998 28.0155C25.4052 28.0155 25.977 27.4584 25.977 26.7711C25.9374 25.8103 26.3275 24.8801 27.0462 24.2211C27.7649 23.5622 28.7416 23.2395 29.7235 23.3364H32.6525L32.4652 23.5023C31.9528 23.9743 31.9299 24.7617 32.4141 25.2611Z" fill="white"/>
<path d="M35.854 26.3729C35.1487 26.3729 34.5768 26.93 34.5768 27.6173C34.6164 28.5781 34.2263 29.5083 33.5076 30.1672C32.7889 30.8262 31.8122 31.1489 30.8304 31.052H27.8673L28.0546 30.8695C28.4802 30.6003 28.7019 30.1112 28.6195 29.6234C28.537 29.1356 28.166 28.7416 27.6743 28.6197C27.1826 28.4977 26.6635 28.6709 26.3517 29.0609L23.8313 31.3839C23.5806 31.6213 23.4391 31.9475 23.4391 32.2882C23.4391 32.6288 23.5806 32.955 23.8313 33.1925L26.3687 35.5154C26.8918 35.8463 27.5836 35.7606 28.0052 35.3129C28.4268 34.8651 28.4549 34.1862 28.0716 33.7068L27.8843 33.5409H30.7963C32.448 33.6043 34.0547 33.0077 35.2442 31.8894C36.4338 30.771 37.1031 29.2279 37.0972 27.6173C37.1017 27.2917 36.9733 26.9776 36.7402 26.7442C36.507 26.5108 36.1883 26.3772 35.854 26.3729Z" fill="white"/>
</svg>
