<svg width="128" height="94" viewBox="0 0 128 94" fill="none" xmlns="http://www.w3.org/2000/svg">
<g filter="url(#filter0_d_102_49)">
<path d="M24.1619 26.0909H39.3999L47.1058 57.6108H47.7024L65.8487 26.0909H81.0866L72.6349 77H60.6534L65.8487 45.7287H65.4261L48.0753 76.6768H40.4439L33.3842 45.5547H32.9616L27.6918 77H15.7102L24.1619 26.0909Z" fill="url(#paint0_linear_102_49)"/>
<path d="M77.7954 78.1467L65.0167 81.5512L76.6754 25.7602L92.5046 21.543L114.042 68.4899L101.263 71.8944L86.0545 36.5355L85.6702 36.6379L77.7954 78.1467ZM74.1747 58.3769L100.885 51.2607L101.754 60.7018L75.0436 67.818L74.1747 58.3769Z" fill="white"/>
<path d="M100.5 14C102.433 14 104 15.5669 104 17.5C104 19.433 102.433 21 100.5 21C98.567 21 97 19.433 97 17.5C97 15.5669 98.567 14 100.5 14ZM100.5 14.7C99.7574 14.7 99.0452 14.995 98.5201 15.5201C97.995 16.0452 97.7 16.7574 97.7 17.5C97.7 18.2426 97.995 18.9548 98.5201 19.4799C99.0452 20.005 99.7574 20.3 100.5 20.3C101.243 20.3 101.955 20.005 102.48 19.4799C103.005 18.9548 103.3 18.2426 103.3 17.5C103.3 16.7574 103.005 16.0452 102.48 15.5201C101.955 14.995 101.243 14.7 100.5 14.7ZM100.675 15.75C100.942 15.7499 101.202 15.8373 101.415 15.9987C101.628 16.1602 101.783 16.3869 101.855 16.6442C101.927 16.9015 101.913 17.1754 101.815 17.4241C101.717 17.6728 101.54 17.8825 101.312 18.0215L102.204 19.25H101.339L100.576 18.2H99.8V19.25H99.1V15.75H100.675ZM100.675 16.45H99.8V17.5H100.675C100.805 17.5 100.931 17.4514 101.028 17.3637C101.124 17.2761 101.185 17.1556 101.198 17.0257L101.2 16.975C101.2 16.8357 101.145 16.7022 101.046 16.6037C100.948 16.5053 100.814 16.45 100.675 16.45Z" fill="white"/>
</g>
<defs>
<filter id="filter0_d_102_49" x="11.71" y="14" width="106.332" height="75.5512" filterUnits="userSpaceOnUse" color-interpolation-filters="sRGB">
<feFlood flood-opacity="0" result="BackgroundImageFix"/>
<feColorMatrix in="SourceAlpha" type="matrix" values="0 0 0 0 0 0 0 0 0 0 0 0 0 0 0 0 0 0 127 0" result="hardAlpha"/>
<feOffset dy="4"/>
<feGaussianBlur stdDeviation="2"/>
<feComposite in2="hardAlpha" operator="out"/>
<feColorMatrix type="matrix" values="0 0 0 0 0 0 0 0 0 0 0 0 0 0 0 0 0 0 0.25 0"/>
<feBlend mode="normal" in2="BackgroundImageFix" result="effect1_dropShadow_102_49"/>
<feBlend mode="normal" in="SourceGraphic" in2="effect1_dropShadow_102_49" result="shape"/>
</filter>
<linearGradient id="paint0_linear_102_49" x1="18.6301" y1="50.948" x2="80" y2="50.948" gradientUnits="userSpaceOnUse">
<stop stop-color="#FC575E"/>
<stop offset="1" stop-color="#F7B42C"/>
</linearGradient>
</defs>
</svg>
