<svg width="352" height="287" viewBox="0 0 352 287" fill="none" xmlns="http://www.w3.org/2000/svg">
<path d="M1.55 272L7.7 237H12.6L20.9 261.4L37.7 237H42.65L36.5 272H32.3L37.1 244.5L21.5 267H18.35L10.6 244.55L5.75 272H1.55ZM55.1328 272.6C53.0661 272.6 51.2328 272.133 49.6328 271.2C48.0328 270.267 46.7828 268.983 45.8828 267.35C44.9828 265.717 44.5328 263.867 44.5328 261.8C44.5328 259.6 44.9161 257.583 45.6828 255.75C46.4495 253.917 47.4995 252.317 48.8328 250.95C50.1661 249.583 51.7161 248.517 53.4828 247.75C55.2495 246.983 57.1661 246.6 59.2328 246.6C61.2995 246.6 63.1328 247.05 64.7328 247.95C66.3328 248.85 67.5828 250.1 68.4828 251.7C69.3828 253.3 69.8328 255.15 69.8328 257.25C69.8328 259.417 69.4495 261.433 68.6828 263.3C67.9495 265.167 66.8995 266.8 65.5328 268.2C64.1995 269.567 62.6495 270.65 60.8828 271.45C59.1161 272.217 57.1995 272.6 55.1328 272.6ZM55.6828 269C57.5495 269 59.2161 268.5 60.6828 267.5C62.1828 266.5 63.3661 265.133 64.2328 263.4C65.0995 261.667 65.5328 259.717 65.5328 257.55C65.5328 255.217 64.8495 253.417 63.4828 252.15C62.1495 250.85 60.5495 250.2 58.6828 250.2C56.8495 250.2 55.1995 250.7 53.7328 251.7C52.2661 252.7 51.0995 254.067 50.2328 255.8C49.3661 257.533 48.9328 259.483 48.9328 261.65C48.9328 263.217 49.2328 264.55 49.8328 265.65C50.4661 266.717 51.2995 267.55 52.3328 268.15C53.3661 268.717 54.4828 269 55.6828 269ZM81.2949 272C79.2283 272 77.6283 271.6 76.4949 270.8C75.3616 269.967 74.7949 268.567 74.7949 266.6C74.7949 266.267 74.8116 265.917 74.8449 265.55C74.8783 265.15 74.9283 264.733 74.9949 264.3L77.3949 250.75H73.5449L74.1949 247.2H78.0449L79.6449 241.25H83.3449L82.2449 247.2H89.5949L88.9449 250.75H81.6449L79.1949 264.3C79.1283 264.833 79.0949 265.3 79.0949 265.7C79.0949 266.733 79.3616 267.45 79.8949 267.85C80.4616 268.217 81.3616 268.4 82.5949 268.4H85.8449L85.1949 272H81.2949ZM99.2508 241.7C98.4174 241.7 97.7174 241.433 97.1508 240.9C96.6174 240.367 96.3508 239.683 96.3508 238.85C96.3508 238.017 96.6174 237.333 97.1508 236.8C97.7174 236.267 98.4174 236 99.2508 236C100.051 236 100.734 236.267 101.301 236.8C101.867 237.333 102.151 238.017 102.151 238.85C102.151 239.683 101.867 240.367 101.301 240.9C100.734 241.433 100.051 241.7 99.2508 241.7ZM91.3008 272L95.6508 247.2H99.8508L95.5008 272H91.3008ZM114.361 272.6C112.295 272.6 110.461 272.133 108.861 271.2C107.261 270.267 106.011 268.983 105.111 267.35C104.211 265.717 103.761 263.867 103.761 261.8C103.761 259.6 104.145 257.583 104.911 255.75C105.678 253.917 106.728 252.317 108.061 250.95C109.395 249.583 110.945 248.517 112.711 247.75C114.478 246.983 116.395 246.6 118.461 246.6C120.528 246.6 122.361 247.05 123.961 247.95C125.561 248.85 126.811 250.1 127.711 251.7C128.611 253.3 129.061 255.15 129.061 257.25C129.061 259.417 128.678 261.433 127.911 263.3C127.178 265.167 126.128 266.8 124.761 268.2C123.428 269.567 121.878 270.65 120.111 271.45C118.345 272.217 116.428 272.6 114.361 272.6ZM114.911 269C116.778 269 118.445 268.5 119.911 267.5C121.411 266.5 122.595 265.133 123.461 263.4C124.328 261.667 124.761 259.717 124.761 257.55C124.761 255.217 124.078 253.417 122.711 252.15C121.378 250.85 119.778 250.2 117.911 250.2C116.078 250.2 114.428 250.7 112.961 251.7C111.495 252.7 110.328 254.067 109.461 255.8C108.595 257.533 108.161 259.483 108.161 261.65C108.161 263.217 108.461 264.55 109.061 265.65C109.695 266.717 110.528 267.55 111.561 268.15C112.595 268.717 113.711 269 114.911 269ZM132.55 272L136.9 247.2H140.7L140.2 251.7C141.267 250.1 142.633 248.85 144.3 247.95C145.967 247.05 147.75 246.6 149.65 246.6C152.117 246.6 154.067 247.3 155.5 248.7C156.933 250.067 157.65 252.033 157.65 254.6C157.65 255.067 157.617 255.55 157.55 256.05C157.517 256.517 157.45 257 157.35 257.5L154.8 272H150.6L153.05 257.95C153.117 257.517 153.167 257.1 153.2 256.7C153.267 256.3 153.3 255.917 153.3 255.55C153.3 251.983 151.55 250.2 148.05 250.2C145.95 250.2 144.067 250.933 142.4 252.4C140.767 253.867 139.667 255.967 139.1 258.7L136.75 272H132.55Z" fill="url(#paint0_linear_168_33)"/>
<path d="M173.519 272L192.619 237H197.069L203.719 272H199.369L197.719 263H182.819L178.019 272H173.519ZM184.569 259.7H197.119L193.919 242L184.569 259.7ZM208.722 272L213.072 247.2H216.822L216.472 251.25C217.439 249.817 218.639 248.683 220.072 247.85C221.505 247.017 223.055 246.6 224.722 246.6C226.555 246.6 228.139 247.017 229.472 247.85C230.805 248.683 231.722 249.95 232.222 251.65C233.289 250.083 234.639 248.85 236.272 247.95C237.939 247.05 239.639 246.6 241.372 246.6C243.205 246.6 244.772 247 246.072 247.8C247.405 248.567 248.355 249.767 248.922 251.4C249.522 253 249.589 255.033 249.122 257.5L246.572 272H242.372L244.822 257.95C245.289 255.383 245.105 253.45 244.272 252.15C243.472 250.85 242.172 250.2 240.372 250.2C238.605 250.2 236.955 250.9 235.422 252.3C233.889 253.667 232.805 255.65 232.172 258.25L229.722 272H225.572L228.022 257.95C228.455 255.383 228.255 253.45 227.422 252.15C226.622 250.85 225.322 250.2 223.522 250.2C221.689 250.2 219.955 250.983 218.322 252.55C216.722 254.083 215.672 256.283 215.172 259.15L212.922 272H208.722ZM250.96 283L257.31 247.2H261.21L260.81 251.3C261.843 250 263.11 248.9 264.61 248C266.143 247.067 268.027 246.6 270.26 246.6C272.393 246.6 274.227 247.067 275.76 248C277.293 248.933 278.46 250.2 279.26 251.8C280.093 253.4 280.51 255.217 280.51 257.25C280.51 260.15 279.877 262.767 278.61 265.1C277.377 267.4 275.677 269.233 273.51 270.6C271.343 271.933 268.893 272.6 266.16 272.6C264.827 272.6 263.593 272.367 262.46 271.9C261.36 271.433 260.41 270.833 259.61 270.1C258.843 269.367 258.277 268.6 257.91 267.8L255.16 283H250.96ZM266.41 268.95C268.31 268.95 269.993 268.467 271.46 267.5C272.927 266.533 274.077 265.217 274.91 263.55C275.743 261.883 276.16 259.983 276.16 257.85C276.16 255.65 275.527 253.833 274.26 252.4C273.027 250.967 271.343 250.25 269.21 250.25C267.31 250.25 265.61 250.75 264.11 251.75C262.61 252.75 261.427 254.117 260.56 255.85C259.693 257.55 259.26 259.45 259.26 261.55C259.26 263.783 259.91 265.583 261.21 266.95C262.51 268.283 264.243 268.95 266.41 268.95ZM283.916 272L290.316 236H294.516L288.116 272H283.916ZM303.499 241.7C302.665 241.7 301.965 241.433 301.399 240.9C300.865 240.367 300.599 239.683 300.599 238.85C300.599 238.017 300.865 237.333 301.399 236.8C301.965 236.267 302.665 236 303.499 236C304.299 236 304.982 236.267 305.549 236.8C306.115 237.333 306.399 238.017 306.399 238.85C306.399 239.683 306.115 240.367 305.549 240.9C304.982 241.433 304.299 241.7 303.499 241.7ZM295.549 272L299.899 247.2H304.099L299.749 272H295.549ZM308.459 272L312.209 250.75H308.509L309.109 247.2H312.809L313.559 242.9C313.993 240.5 314.909 238.75 316.309 237.65C317.709 236.55 319.576 236 321.909 236H324.359L323.709 239.6H321.909C320.643 239.6 319.693 239.867 319.059 240.4C318.426 240.9 317.993 241.767 317.759 243L317.009 247.2H323.159L322.509 250.75H316.409L312.659 272H308.459ZM324.609 283L333.059 269.6H331.659L325.709 247.2H330.159L335.109 266.5L347.159 247.2H351.559L329.009 283H324.609Z" fill="white"/>
<path d="M75.2273 38.6364H110.057L127.67 110.682H129.034L170.511 38.6364H205.341L186.023 155H158.636L170.511 83.5227H169.545L129.886 154.261H112.443L96.3068 83.125H95.3409L83.2955 155H55.9091L75.2273 38.6364Z" fill="url(#paint1_linear_168_33)"/>
<path d="M189.708 158.347L160.499 166.129L187.148 38.6067L223.329 28.9673L272.556 136.275L243.348 144.056L208.586 63.236L207.707 63.47L189.708 158.347ZM181.432 113.159L242.484 96.8936L244.47 118.473L183.418 134.739L181.432 113.159Z" fill="white"/>
<defs>
<linearGradient id="paint0_linear_168_33" x1="2.92606e-06" y1="253.452" x2="163.038" y2="253.452" gradientUnits="userSpaceOnUse">
<stop stop-color="#FC575E"/>
<stop offset="1" stop-color="#F7B42C"/>
</linearGradient>
<linearGradient id="paint1_linear_168_33" x1="62.6164" y1="95.7403" x2="203" y2="95.7403" gradientUnits="userSpaceOnUse">
<stop stop-color="#FC575E"/>
<stop offset="1" stop-color="#F7B42C"/>
</linearGradient>
</defs>
</svg>
