<svg width="39" height="39" viewBox="0 0 39 39" fill="none" xmlns="http://www.w3.org/2000/svg">
<path fill-rule="evenodd" clip-rule="evenodd" d="M33.8504 13.734C34.2154 14.6236 35.0806 15.2055 36.0422 15.2083C37.3473 15.2189 38.3997 16.2799 38.3997 17.585V21.6867C38.3997 22.9993 37.3356 24.0633 36.023 24.0633C35.0614 24.0661 34.1963 24.6481 33.8312 25.5377C33.4661 26.4273 33.6731 27.4492 34.3555 28.1267C35.271 29.0648 35.271 30.5619 34.3555 31.5L31.4805 34.375C30.5424 35.2905 29.0453 35.2905 28.1072 34.375C27.6745 33.9166 27.07 33.6595 26.4397 33.6658C25.806 33.6607 25.1966 33.9089 24.7467 34.3551C24.2968 34.8014 24.0438 35.4088 24.0438 36.0425C24.0438 37.3551 22.9798 38.4192 21.6672 38.4192H17.5655C16.2529 38.4192 15.1888 37.3551 15.1888 36.0425C15.1889 35.4088 14.9358 34.8014 14.486 34.3551C14.0361 33.9089 13.4267 33.6607 12.793 33.6658C12.1626 33.6595 11.5582 33.9166 11.1255 34.375C10.1874 35.2905 8.69029 35.2905 7.75217 34.375L4.87717 31.5C3.96171 30.5619 3.96171 29.0648 4.87717 28.1267C5.5596 27.4492 5.76655 26.4273 5.40148 25.5377C5.03641 24.6481 4.17126 24.0661 3.20967 24.0633C2.57934 24.0633 1.97483 23.8129 1.52912 23.3672C1.08341 22.9215 0.833008 22.317 0.833008 21.6867V17.585C0.833008 16.2724 1.89708 15.2083 3.20967 15.2083C4.17126 15.2055 5.03641 14.6236 5.40148 13.734C5.76655 12.8444 5.5596 11.8225 4.87717 11.145C3.96171 10.2069 3.96171 8.70979 4.87717 7.77168L7.75217 4.89668C8.69029 3.98122 10.1874 3.98122 11.1255 4.89668C11.5582 5.35513 12.1626 5.61218 12.793 5.60584C13.43 5.611 14.0424 5.36024 14.4928 4.90981C14.9432 4.45938 15.194 3.84699 15.1888 3.21001C15.1888 1.89741 16.2529 0.833344 17.5655 0.833344H21.6863C22.9989 0.833344 24.063 1.89741 24.063 3.21001C24.0578 3.84699 24.3086 4.45938 24.759 4.90981C25.2095 5.36024 25.8219 5.611 26.4588 5.60584C27.0892 5.61218 27.6936 5.35513 28.1263 4.89668C29.0645 3.98122 30.5616 3.98122 31.4997 4.89668L34.3747 7.77168C35.2901 8.70979 35.2901 10.2069 34.3747 11.145C33.6922 11.8225 33.4853 12.8444 33.8504 13.734ZM31.1163 24.4275C31.8645 22.6033 33.5778 21.3572 35.5438 21.2075L35.4863 18.0642C33.5417 17.8937 31.8553 16.651 31.1163 14.8442C30.3925 13.0331 30.724 10.9706 31.9788 9.47751L29.7747 7.27334C28.84 8.05613 27.6589 8.48376 26.4397 8.48084C23.7235 8.47419 21.4537 6.41152 21.188 3.70834H18.0447C17.7875 6.41582 15.5127 8.48314 12.793 8.48084C11.5738 8.48376 10.3927 8.05613 9.45801 7.27334L7.31134 9.47751C8.54669 10.982 8.8559 13.0434 8.11634 14.8442C7.37741 16.651 5.69098 17.8937 3.74634 18.0642V21.2075C5.69098 21.378 7.37741 22.6207 8.11634 24.4275C8.84015 26.2386 8.50868 28.3011 7.25384 29.7942L9.45801 31.9983C10.3927 31.2156 11.5738 30.7879 12.793 30.7908C15.5092 30.7975 17.779 32.8602 18.0447 35.5633H21.188C21.4276 32.8471 23.713 30.7703 26.4397 30.7908C27.6589 30.7879 28.84 31.2156 29.7747 31.9983L31.9213 29.7942C30.686 28.2897 30.3768 26.2283 31.1163 24.4275Z" fill="white"/>
<path fill-rule="evenodd" clip-rule="evenodd" d="M12.9847 19.6358C12.9847 15.9733 15.9538 13.0042 19.6163 13.0042C21.3752 13.0042 23.062 13.7029 24.3056 14.9465C25.5493 16.1902 26.248 17.877 26.248 19.6358C26.248 23.2984 23.2789 26.2675 19.6163 26.2675C15.9538 26.2675 12.9847 23.2984 12.9847 19.6358ZM15.783 19.6358C15.783 21.7529 17.4993 23.4692 19.6163 23.4692C21.7334 23.4692 23.4497 21.7529 23.4497 19.6358C23.4497 17.5188 21.7334 15.8025 19.6163 15.8025C17.4993 15.8025 15.783 17.5188 15.783 19.6358Z" fill="white"/>
</svg>
