<svg width="39" height="31" viewBox="0 0 39 31" fill="none" xmlns="http://www.w3.org/2000/svg">
<path fill-rule="evenodd" clip-rule="evenodd" d="M8.19123 2.49437e-05H30.1421C32.3127 -0.00533456 34.3962 0.853175 35.933 2.38613C37.4697 3.91908 38.3333 6.00048 38.3333 8.17108V22.0921C38.3333 24.2627 37.4697 26.3441 35.933 27.8771C34.3962 29.41 32.3127 30.2685 30.1421 30.2632H8.19123C6.02064 30.2685 3.93711 29.41 2.40037 27.8771C0.863639 26.3441 -6.61664e-06 24.2627 0 22.0921V8.17108C-6.61664e-06 6.00048 0.863639 3.91908 2.40037 2.38613C3.93711 0.853175 6.02064 -0.00533456 8.19123 2.49437e-05ZM30.1421 27.2369C32.948 27.2376 35.2413 24.9981 35.307 22.193V8.17108C35.2959 5.32646 32.9867 3.02632 30.1421 3.02634H8.19123C5.34659 3.02632 3.03743 5.32646 3.02632 8.17108V22.0921C3.03743 24.9367 5.34659 27.2369 8.19123 27.2369H30.1421Z" fill="white"/>
<path fill-rule="evenodd" clip-rule="evenodd" d="M10.9553 15.6965C10.9553 11.2395 14.5684 7.62637 19.0254 7.62637C23.4825 7.62637 27.0956 11.2395 27.0956 15.6965C27.0956 20.1536 23.4825 23.7667 19.0254 23.7667C14.5684 23.7667 10.9553 20.1536 10.9553 15.6965ZM13.9816 15.6965C13.9816 18.4822 16.2398 20.7404 19.0254 20.7404C21.8111 20.7404 24.0693 18.4822 24.0693 15.6965C24.0693 12.9109 21.8111 10.6527 19.0254 10.6527C16.2398 10.6527 13.9816 12.9109 13.9816 15.6965Z" fill="white"/>
<path d="M27.0956 6.54698C27.0956 6.01771 27.5247 5.58865 28.0539 5.58865H30.1724C30.7016 5.58865 31.1307 6.01771 31.1307 6.54698V8.68558C31.1307 9.21485 30.7016 9.64391 30.1724 9.64391H28.0539C27.5247 9.64391 27.0956 9.21485 27.0956 8.68558V6.54698Z" fill="white"/>
</svg>
