<svg width="30" height="34" viewBox="0 0 30 34" fill="none" xmlns="http://www.w3.org/2000/svg">
<path fill-rule="evenodd" clip-rule="evenodd" d="M26.8908 1.4437C26.8908 0.649793 27.5344 0.00620257 28.3283 0.00620257C28.734 -0.0313389 29.1369 0.102733 29.4392 0.375885C29.7415 0.649036 29.9155 1.0363 29.9192 1.4437V32.0145C29.9192 32.8084 29.2756 33.452 28.4817 33.452C27.6878 33.452 27.0442 32.8084 27.0442 32.0145V18.042C26.6105 19.3631 25.7022 20.4763 24.495 21.1662L8.60583 30.2704C7.741 30.7823 6.75499 31.0536 5.75 31.0562C2.57436 31.0562 0 28.4818 0 25.3062V7.09787C0 3.92223 2.57436 1.34787 5.75 1.34787C6.7497 1.33299 7.73536 1.58437 8.60583 2.0762L24.495 11.1995C25.6444 11.9177 26.4954 13.0273 26.8908 14.3237V1.4437ZM7.245 27.7979L22.9808 18.5979L23.0575 18.6745C23.9488 18.1615 24.4982 17.2113 24.4982 16.1829C24.4982 15.1544 23.9488 14.2043 23.0575 13.6912L7.245 4.56787C6.79658 4.29077 6.27692 4.15087 5.75 4.16537C4.97733 4.17044 4.23832 4.48225 3.69555 5.0322C3.15279 5.58215 2.85073 6.3252 2.85583 7.09787V25.3062C2.8608 26.0856 3.17788 26.8305 3.73617 27.3744C4.29446 27.9183 5.0474 28.2158 5.82666 28.2004C6.32761 28.2003 6.81866 28.0609 7.245 27.7979Z" fill="white"/>
</svg>
