<svg width="27" height="29" viewBox="0 0 27 29" fill="none" xmlns="http://www.w3.org/2000/svg">
<path fill-rule="evenodd" clip-rule="evenodd" d="M9.37793 1.56082L23.2738 9.59165C25.0471 10.6203 26.1386 12.5153 26.1386 14.5654C26.1386 16.6155 25.0471 18.5105 23.2738 19.5392L9.37793 27.57C7.59831 28.5975 5.40563 28.5971 3.62634 27.5691C1.84704 26.541 0.751615 24.6416 0.752931 22.5867V6.54415C0.751615 4.48922 1.84704 2.58978 3.62634 1.56174C5.40563 0.533704 7.59831 0.533352 9.37793 1.56082ZM7.65294 24.58L21.5488 16.5683C22.2638 16.1601 22.7033 15.3983 22.6988 14.575C22.7062 13.7459 22.2668 12.977 21.5488 12.5625L7.65294 4.55082C7.30538 4.34191 6.90842 4.22944 6.50294 4.22499C5.2221 4.22499 4.18377 5.26331 4.18377 6.54415V22.5867C4.18377 23.2017 4.42811 23.7916 4.86304 24.2266C5.29797 24.6615 5.88786 24.9058 6.50294 24.9058C6.90842 24.9014 7.30538 24.7889 7.65294 24.58Z" fill="white"/>
</svg>
