<svg width="39" height="37" viewBox="0 0 39 37" fill="none" xmlns="http://www.w3.org/2000/svg">
<path fill-rule="evenodd" clip-rule="evenodd" d="M7.8 0H31.2C35.5078 0 39 3.31309 39 7.4V29.6C39 33.6869 35.5078 37 31.2 37H7.8C3.49218 37 0 33.6869 0 29.6V7.4C0 3.31309 3.49218 0 7.8 0ZM34.523 32.7526C35.4044 31.9165 35.8995 30.7825 35.8995 29.6V7.4C35.8995 6.21753 35.4044 5.0835 34.523 4.24736C33.6417 3.41123 32.4464 2.9415 31.2 2.9415H7.8C5.20454 2.9415 3.1005 4.93764 3.1005 7.4V29.6C3.1005 30.7825 3.59563 31.9165 4.47695 32.7526C5.35828 33.5888 6.55362 34.0585 7.8 34.0585H31.2C32.4464 34.0585 33.6417 33.5888 34.523 32.7526Z" fill="white"/>
<path d="M27.3 17.1125H20.9625V11.1C20.9625 10.3337 20.3077 9.7125 19.5 9.7125C18.6923 9.7125 18.0375 10.3337 18.0375 11.1V17.1125H11.7C10.8923 17.1125 10.2375 17.7337 10.2375 18.5C10.2375 19.2663 10.8923 19.8875 11.7 19.8875H18.0375V25.9C18.0375 26.6663 18.6923 27.2875 19.5 27.2875C20.3077 27.2875 20.9625 26.6663 20.9625 25.9V19.8875H27.3C28.1077 19.8875 28.7625 19.2663 28.7625 18.5C28.7625 17.7337 28.1077 17.1125 27.3 17.1125Z" fill="white"/>
</svg>
