<svg width="45" height="45" viewBox="0 0 45 45" fill="none" xmlns="http://www.w3.org/2000/svg">
<g clip-path="url(#clip0_87_281)">
<path opacity="0.5" d="M36.7109 5.92105H40.0929V60.3947H36.7109V5.92105ZM43.475 60.3947H46.857V5.92105H43.475V60.3947ZM50.2391 60.3947H53.6211V5.92105H50.2391V60.3947ZM57.0132 5.92105V60.3947H60.3951V5.92105H57.0132Z" fill="#F5A623"/>
<path opacity="0.5" d="M20.1318 35.5263V8.28946H47.3687L20.1318 35.5263Z" fill="#00A0D8"/>
<path opacity="0.8" d="M7.10547 58.0263H36.7107L7.10547 28.4211V58.0263Z" fill="#C16AFF"/>
<path d="M42.6313 35.5263V37.8947H37.8945V42.6316H35.5261V37.8947H7.10501V9.47367H2.36816V7.10525H7.10501V2.36841H9.47343V7.10525H32.8024L30.434 9.47367H9.47343V33.8684L40.6182 2.72367L42.2761 4.38157L11.1313 35.5263H35.5261V14.5658L37.8945 12.1974V35.5263H42.6313Z" fill="white"/>
</g>
<defs>
<clipPath id="clip0_87_281">
<rect width="45" height="45" fill="white"/>
</clipPath>
</defs>
</svg>
