<svg width="39" height="36" viewBox="0 0 39 36" fill="none" xmlns="http://www.w3.org/2000/svg">
<path fill-rule="evenodd" clip-rule="evenodd" d="M16.2558 21.3542L1.40581 13.0208C0.895508 12.6324 0.590439 11.9894 0.590439 11.3021C0.590439 10.6148 0.895508 9.97173 1.40581 9.58332L16.2558 1.24999C17.0313 0.824561 17.8847 0.603558 18.7496 0.604158C19.5374 0.608879 20.316 0.793239 21.0371 1.14583L37.5183 9.47916C38.1152 9.84607 38.4856 10.5442 38.4856 11.3021C38.4856 12.06 38.1152 12.7581 37.5183 13.125L21.0371 21.4583C20.316 21.8109 19.5374 21.9953 18.7496 22C17.8847 22.0006 17.0313 21.7796 16.2558 21.3542ZM18.8433 3.64583C18.4207 3.64256 18.0032 3.7496 17.6246 3.95833L4.49956 11.2292L17.6246 18.4792C18.0032 18.6879 18.4207 18.7949 18.8433 18.7917C19.2319 18.7964 19.6164 18.7038 19.9683 18.5208L34.4246 11.2292L19.9683 3.91666C19.6164 3.73367 19.2319 3.6411 18.8433 3.64583Z" fill="white"/>
<path d="M36.9183 18.1042L20.3246 25.7917C19.3097 26.3249 18.1332 26.3249 17.1183 25.7917L2.41831 18.125C1.95945 17.8905 1.42287 17.9459 1.0107 18.2702C0.598529 18.5945 0.373384 19.1385 0.420076 19.6973C0.466767 20.2561 0.778202 20.7447 1.23706 20.9792L15.8996 28.5208C16.8094 29.0209 17.8096 29.2844 18.8246 29.2917C19.7317 29.2941 20.6281 29.0736 21.4496 28.6458L37.9871 21C38.3425 20.8436 38.6253 20.5331 38.7703 20.14C38.9154 19.747 38.9101 19.3053 38.7558 18.9167C38.4397 18.1408 37.6278 17.7818 36.9183 18.1042Z" fill="white"/>
<path d="M36.9183 24.5208L20.3246 32.2083C19.3097 32.7416 18.1332 32.7416 17.1183 32.2083L2.41831 24.5625C1.95935 24.3014 1.40856 24.3403 0.983055 24.6639C0.557548 24.9875 0.32557 25.5439 0.378559 26.1138C0.431547 26.6837 0.761001 27.1757 1.23706 27.3958L15.8996 34.9375C16.8004 35.4444 17.796 35.7085 18.8058 35.7083C19.6941 35.703 20.5707 35.4826 21.3746 35.0625L37.9121 27.4167C38.2675 27.2602 38.5503 26.9497 38.6953 26.5567C38.8404 26.1637 38.8351 25.722 38.6808 25.3333C38.3611 24.6082 37.6061 24.2602 36.9183 24.5208Z" fill="white"/>
</svg>
