<svg width="37" height="37" viewBox="0 0 37 37" fill="none" xmlns="http://www.w3.org/2000/svg">
<path fill-rule="evenodd" clip-rule="evenodd" d="M21.7411 13.437H32.3402C35.0044 13.437 36.9977 16.4653 36.3461 19.6278L34.0077 32.4503C33.7972 34.566 32.1185 36.2366 30.0019 36.437H7.42356C5.27708 36.2716 3.5574 34.5922 3.34106 32.4503L0.84939 19.5895C0.27439 16.427 2.26772 13.3986 4.93189 13.3986H16.4319L8.05606 3.4128C7.71314 2.74577 7.88931 1.92939 8.47679 1.46314C9.06426 0.996884 9.89933 1.0107 10.4711 1.49613L19.1727 11.7503L26.8394 1.49613C27.0878 1.14088 27.4735 0.905677 27.9031 0.84743C28.3326 0.789182 28.767 0.913195 29.1011 1.18947C29.7857 1.71854 29.9219 2.69777 29.4077 3.39363L21.7411 13.437ZM30.9986 31.8945L33.3369 19.072C33.5179 18.2904 33.3424 17.4688 32.8577 16.8295C32.7348 16.657 32.5489 16.5399 32.3402 16.5036H5.00856C4.79991 16.5399 4.61398 16.657 4.49106 16.8295C4.0064 17.4688 3.83084 18.2904 4.01189 19.072L6.35022 31.8945C6.50356 32.7953 7.04022 33.3128 7.34689 33.3128H30.0019C30.3086 33.3128 30.8452 32.7953 30.9986 31.8945Z" fill="white"/>
<path d="M19.2494 19.5511C18.3814 19.5511 17.6777 20.2548 17.6777 21.1228V26.8728C17.6882 27.7333 18.3888 28.4254 19.2494 28.4253C20.1174 28.4253 20.8211 27.7216 20.8211 26.8536V21.1036C20.8106 20.2431 20.11 19.5511 19.2494 19.5511Z" fill="white"/>
<path d="M11.2952 20.6628C11.0808 20.1047 10.5682 19.7166 9.97286 19.6616C9.37752 19.6065 8.80251 19.8941 8.48934 20.4034C8.17617 20.9127 8.1791 21.5555 8.49689 22.062L11.6402 28.3295C11.9001 28.8638 12.4453 29.1998 13.0394 29.192C13.2785 29.1983 13.5155 29.1456 13.7294 29.0386C14.1032 28.8533 14.3881 28.527 14.5211 28.1315C14.6541 27.736 14.6244 27.3039 14.4386 26.9303L11.2952 20.6628Z" fill="white"/>
<path d="M29.4269 19.8578C29.0542 19.6666 28.6201 19.634 28.2231 19.7675C27.8261 19.9011 27.4999 20.1894 27.3186 20.567L24.1752 26.8345C23.9893 27.208 23.9596 27.6402 24.0927 28.0357C24.2257 28.4312 24.5105 28.7575 24.8844 28.9428C25.0988 29.0483 25.3354 29.1009 25.5744 29.0961C26.1685 29.104 26.7137 28.7679 26.9736 28.2336L30.1744 21.9661C30.3576 21.5878 30.3817 21.1519 30.2413 20.7557C30.1008 20.3596 29.8075 20.0362 29.4269 19.8578Z" fill="white"/>
</svg>
